<svg xmlns="http://www.w3.org/2000/svg" xmlns:xlink="http://www.w3.org/1999/xlink" width="1830" zoomAndPan="magnify" viewBox="0 0 1372.5 441.749989" height="589" preserveAspectRatio="xMidYMid meet" version="1.0"><defs><g/></defs><g fill="#ffffff" fill-opacity="1"><g transform="translate(3.039058, 332.487738)"><g><path d="M 14.625 0 L 14.625 -168.265625 L 81.011719 -168.265625 C 93.773438 -168.265625 104.644531 -165.839844 113.628906 -160.992188 C 122.609375 -156.144531 129.472656 -149.4375 134.210938 -140.863281 C 138.945312 -132.292969 141.316406 -122.417969 141.316406 -111.246094 C 141.316406 -100.070312 138.90625 -90.226562 134.085938 -81.707031 C 129.265625 -73.191406 122.296875 -66.535156 113.175781 -61.742188 C 104.054688 -56.949219 93.03125 -54.554688 80.105469 -54.554688 L 50.199219 -54.554688 L 50.199219 0 Z M 50.199219 -83.0625 L 74.355469 -83.0625 C 84.542969 -83.0625 92.144531 -85.679688 97.15625 -90.910156 C 102.167969 -96.140625 104.671875 -102.917969 104.671875 -111.246094 C 104.671875 -119.625 102.167969 -126.375 97.15625 -131.496094 C 92.144531 -136.621094 84.488281 -139.179688 74.191406 -139.179688 L 50.199219 -139.179688 Z M 50.199219 -83.0625 "/></g></g></g><g fill="#ffffff" fill-opacity="1"><g transform="translate(152.89975, 332.487738)"><g><path d="M 48.96875 -72.957031 L 48.96875 0 L 13.96875 0 L 13.96875 -168.265625 L 47.980469 -168.265625 L 47.980469 -103.933594 L 49.460938 -103.933594 C 52.363281 -111.382812 56.976562 -117.230469 63.304688 -121.472656 C 69.632812 -125.71875 77.585938 -127.839844 87.171875 -127.839844 C 100.316406 -127.839844 110.890625 -123.625 118.886719 -115.1875 C 126.882812 -106.753906 130.855469 -95.140625 130.800781 -80.351562 L 130.800781 0 L 95.800781 0 L 95.800781 -74.109375 C 95.855469 -81.886719 93.894531 -87.9375 89.925781 -92.265625 C 85.953125 -96.59375 80.40625 -98.757812 73.289062 -98.757812 C 66.167969 -98.757812 60.347656 -96.496094 55.828125 -91.980469 C 51.308594 -87.460938 49.023438 -81.121094 48.96875 -72.957031 Z M 48.96875 -72.957031 "/></g></g></g><g fill="#ffffff" fill-opacity="1"><g transform="translate(297.337845, 332.487738)"><g><path d="M 70.988281 2.464844 C 58.222656 2.464844 47.203125 -0.261719 37.917969 -5.710938 C 28.632812 -11.160156 21.472656 -18.773438 16.433594 -28.550781 C 11.394531 -38.328125 8.875 -49.679688 8.875 -62.605469 C 8.875 -75.640625 11.394531 -87.050781 16.433594 -96.828125 C 21.472656 -106.601562 28.632812 -114.21875 37.917969 -119.667969 C 47.203125 -125.117188 58.222656 -127.839844 70.988281 -127.839844 C 83.75 -127.839844 94.773438 -125.117188 104.054688 -119.667969 C 113.339844 -114.21875 120.503906 -106.601562 125.542969 -96.828125 C 130.582031 -87.050781 133.101562 -75.640625 133.101562 -62.605469 C 133.101562 -49.679688 130.582031 -38.328125 125.542969 -28.550781 C 120.503906 -18.773438 113.339844 -11.160156 104.054688 -5.710938 C 94.773438 -0.261719 83.75 2.464844 70.988281 2.464844 Z M 71.152344 -24.648438 C 79.804688 -24.648438 86.363281 -28.261719 90.828125 -35.492188 C 95.292969 -42.722656 97.523438 -51.84375 97.523438 -62.851562 C 97.523438 -73.863281 95.292969 -82.996094 90.828125 -90.253906 C 86.363281 -97.511719 79.804688 -101.140625 71.152344 -101.140625 C 62.332031 -101.140625 55.675781 -97.511719 51.1875 -90.253906 C 46.695312 -82.996094 44.449219 -73.863281 44.449219 -62.851562 C 44.449219 -51.84375 46.695312 -42.722656 51.1875 -35.492188 C 55.675781 -28.261719 62.332031 -24.648438 71.152344 -24.648438 Z M 71.152344 -24.648438 "/></g></g></g><g fill="#ffffff" fill-opacity="1"><g transform="translate(439.311081, 332.487738)"><g><path d="M 48.96875 -72.957031 L 48.96875 0 L 13.96875 0 L 13.96875 -126.199219 L 47.324219 -126.199219 L 47.324219 -103.933594 L 48.804688 -103.933594 C 51.652344 -111.273438 56.347656 -117.09375 62.894531 -121.390625 C 69.4375 -125.691406 77.394531 -127.839844 86.761719 -127.839844 C 99.90625 -127.839844 110.449219 -123.609375 118.394531 -115.148438 C 126.335938 -106.683594 130.304688 -95.085938 130.304688 -80.351562 L 130.304688 0 L 95.304688 0 L 95.304688 -74.109375 C 95.359375 -81.832031 93.390625 -87.871094 89.390625 -92.226562 C 85.390625 -96.578125 79.886719 -98.757812 72.875 -98.757812 C 65.8125 -98.757812 60.074219 -96.496094 55.664062 -91.980469 C 51.253906 -87.460938 49.023438 -81.121094 48.96875 -72.957031 Z M 48.96875 -72.957031 "/></g></g></g><g fill="#ffffff" fill-opacity="1"><g transform="translate(583.174035, 332.487738)"><g><path d="M 71.480469 2.464844 C 58.554688 2.464844 47.40625 -0.179688 38.039062 -5.464844 C 28.675781 -10.75 21.472656 -18.253906 16.433594 -27.976562 C 11.394531 -37.699219 8.875 -49.214844 8.875 -62.523438 C 8.875 -75.503906 11.394531 -86.898438 16.433594 -96.703125 C 21.472656 -106.507812 28.578125 -114.148438 37.753906 -119.625 C 46.925781 -125.101562 57.703125 -127.839844 70.082031 -127.839844 C 81.203125 -127.839844 91.238281 -125.488281 100.195312 -120.777344 C 109.148438 -116.066406 116.257812 -108.957031 121.515625 -99.457031 C 126.773438 -89.953125 129.402344 -78.050781 129.402344 -63.757812 L 129.402344 -54.144531 L 43.464844 -54.144531 L 43.464844 -54.0625 C 43.464844 -44.640625 46.039062 -37.21875 51.1875 -31.796875 C 56.335938 -26.375 63.289062 -23.664062 72.054688 -23.664062 C 77.914062 -23.664062 82.980469 -24.894531 87.253906 -27.359375 C 91.527344 -29.824219 94.539062 -33.464844 96.292969 -38.285156 L 128.664062 -36.152344 C 126.199219 -24.429688 119.953125 -15.0625 109.929688 -8.050781 C 99.90625 -1.039062 87.089844 2.464844 71.480469 2.464844 Z M 43.464844 -75.835938 L 96.457031 -75.835938 C 96.402344 -83.339844 93.992188 -89.527344 89.226562 -94.402344 C 84.460938 -99.277344 78.273438 -101.714844 70.65625 -101.714844 C 62.878906 -101.714844 56.5 -99.195312 51.515625 -94.15625 C 46.53125 -89.117188 43.847656 -83.007812 43.464844 -75.835938 Z M 43.464844 -75.835938 "/></g></g></g><g fill="#ffffff" fill-opacity="1"><g transform="translate(721.450079, 332.487738)"><g><path d="M 81.09375 -126.199219 L 81.09375 -99.90625 L 57.347656 -99.90625 L 57.347656 -38.78125 C 57.347656 -33.960938 58.445312 -30.699219 60.632812 -29.003906 C 62.824219 -27.304688 65.671875 -26.457031 69.179688 -26.457031 C 70.824219 -26.457031 72.464844 -26.605469 74.109375 -26.90625 C 75.753906 -27.207031 77.011719 -27.441406 77.886719 -27.605469 L 83.394531 -1.5625 C 81.640625 -1.011719 79.175781 -0.371094 76 0.371094 C 72.820312 1.109375 68.960938 1.5625 64.414062 1.726562 C 51.707031 2.273438 41.503906 -0.480469 33.808594 -6.53125 C 26.113281 -12.585938 22.292969 -21.800781 22.347656 -34.179688 L 22.347656 -99.90625 L 5.09375 -99.90625 L 5.09375 -126.199219 L 22.347656 -126.199219 L 22.347656 -156.433594 L 57.347656 -156.433594 L 57.347656 -126.199219 Z M 81.09375 -126.199219 "/></g></g></g><g fill="#ffffff" fill-opacity="1"><g transform="translate(811.333607, 332.487738)"><g><path d="M 49.953125 2.382812 C 37.902344 2.382812 27.90625 -0.765625 19.964844 -7.066406 C 12.023438 -13.363281 8.050781 -22.757812 8.050781 -35.246094 C 8.050781 -44.667969 10.269531 -52.0625 14.707031 -57.429688 C 19.144531 -62.796875 24.964844 -66.726562 32.164062 -69.21875 C 39.367188 -71.710938 47.132812 -73.34375 55.457031 -74.109375 C 66.414062 -75.203125 74.246094 -76.355469 78.957031 -77.558594 C 83.667969 -78.765625 86.023438 -81.394531 86.023438 -85.445312 L 86.023438 -85.941406 C 86.023438 -91.144531 84.390625 -95.167969 81.132812 -98.015625 C 77.875 -100.867188 73.261719 -102.289062 67.289062 -102.289062 C 60.992188 -102.289062 55.980469 -100.921875 52.253906 -98.183594 C 48.53125 -95.441406 46.066406 -91.964844 44.859375 -87.746094 L 12.488281 -90.375 C 14.898438 -101.878906 20.882812 -111 30.441406 -117.734375 C 40 -124.472656 52.335938 -127.839844 67.453125 -127.839844 C 76.820312 -127.839844 85.582031 -126.363281 93.746094 -123.40625 C 101.90625 -120.449219 108.492188 -115.832031 113.503906 -109.5625 C 118.515625 -103.289062 121.023438 -95.140625 121.023438 -85.117188 L 121.023438 0 L 87.828125 0 L 87.828125 -17.5 L 86.84375 -17.5 C 83.777344 -11.640625 79.1875 -6.859375 73.082031 -3.164062 C 66.972656 0.535156 59.265625 2.382812 49.953125 2.382812 Z M 59.976562 -21.773438 C 67.644531 -21.773438 73.945312 -24.003906 78.875 -28.46875 C 83.804688 -32.933594 86.269531 -38.476562 86.269531 -45.105469 L 86.269531 -58.5 C 84.898438 -57.566406 82.777344 -56.746094 79.902344 -56.035156 C 77.027344 -55.320312 73.957031 -54.707031 70.699219 -54.183594 C 67.441406 -53.664062 64.523438 -53.210938 61.949219 -52.828125 C 55.8125 -51.953125 50.871094 -50.226562 47.117188 -47.652344 C 43.367188 -45.078125 41.492188 -41.328125 41.492188 -36.398438 C 41.492188 -31.578125 43.230469 -27.933594 46.707031 -25.46875 C 50.1875 -23.003906 54.609375 -21.773438 59.976562 -21.773438 Z M 59.976562 -21.773438 "/></g></g></g><g fill="#ffffff" fill-opacity="1"><g transform="translate(945.583792, 332.487738)"><g><path d="M 118.96875 -90.210938 L 86.925781 -88.242188 C 86.050781 -92.292969 83.832031 -95.773438 80.269531 -98.675781 C 76.710938 -101.578125 71.890625 -103.03125 65.8125 -103.03125 C 60.386719 -103.03125 55.800781 -101.894531 52.046875 -99.621094 C 48.296875 -97.347656 46.449219 -94.320312 46.503906 -90.539062 C 46.449219 -87.527344 47.640625 -84.980469 50.078125 -82.898438 C 52.515625 -80.820312 56.664062 -79.148438 62.523438 -77.886719 L 85.363281 -73.289062 C 109.628906 -68.304688 121.789062 -56.910156 121.84375 -39.109375 C 121.84375 -30.835938 119.421875 -23.578125 114.574219 -17.335938 C 109.726562 -11.089844 103.085938 -6.230469 94.648438 -2.753906 C 86.214844 0.726562 76.546875 2.464844 65.644531 2.464844 C 48.941406 2.464844 35.628906 -1.027344 25.714844 -8.011719 C 15.800781 -14.996094 10.023438 -24.511719 8.378906 -36.5625 L 42.804688 -38.367188 C 43.902344 -33.21875 46.433594 -29.332031 50.40625 -26.703125 C 54.375 -24.074219 59.484375 -22.757812 65.726562 -22.757812 C 71.863281 -22.757812 76.804688 -23.964844 80.558594 -26.375 C 84.308594 -28.785156 86.214844 -31.851562 86.269531 -35.574219 C 86.105469 -41.820312 80.710938 -46.011719 70.082031 -48.144531 L 48.226562 -52.5 C 23.800781 -57.375 11.640625 -69.398438 11.75 -88.570312 C 11.695312 -100.730469 16.554688 -110.3125 26.332031 -117.324219 C 36.109375 -124.335938 49.078125 -127.839844 65.234375 -127.839844 C 81.175781 -127.839844 93.730469 -124.472656 102.90625 -117.734375 C 112.082031 -111 117.433594 -101.824219 118.96875 -90.210938 Z M 118.96875 -90.210938 "/></g></g></g><g fill="#ffffff" fill-opacity="1"><g transform="translate(1075.56162, 332.487738)"><g><path d="M 81.09375 -126.199219 L 81.09375 -99.90625 L 57.347656 -99.90625 L 57.347656 -38.78125 C 57.347656 -33.960938 58.445312 -30.699219 60.632812 -29.003906 C 62.824219 -27.304688 65.671875 -26.457031 69.179688 -26.457031 C 70.824219 -26.457031 72.464844 -26.605469 74.109375 -26.90625 C 75.753906 -27.207031 77.011719 -27.441406 77.886719 -27.605469 L 83.394531 -1.5625 C 81.640625 -1.011719 79.175781 -0.371094 76 0.371094 C 72.820312 1.109375 68.960938 1.5625 64.414062 1.726562 C 51.707031 2.273438 41.503906 -0.480469 33.808594 -6.53125 C 26.113281 -12.585938 22.292969 -21.800781 22.347656 -34.179688 L 22.347656 -99.90625 L 5.09375 -99.90625 L 5.09375 -126.199219 L 22.347656 -126.199219 L 22.347656 -156.433594 L 57.347656 -156.433594 L 57.347656 -126.199219 Z M 81.09375 -126.199219 "/></g></g></g><g fill="#ffffff" fill-opacity="1"><g transform="translate(1165.445194, 332.487738)"><g><path d="M 13.96875 0 L 13.96875 -126.199219 L 48.96875 -126.199219 L 48.96875 0 Z M 31.550781 -142.464844 C 26.402344 -142.464844 21.964844 -144.207031 18.238281 -147.683594 C 14.515625 -151.160156 12.652344 -155.339844 12.652344 -160.214844 C 12.652344 -165.089844 14.515625 -169.25 18.238281 -172.703125 C 21.964844 -176.152344 26.402344 -177.878906 31.550781 -177.878906 C 36.753906 -177.878906 41.21875 -176.152344 44.941406 -172.703125 C 48.667969 -169.25 50.527344 -165.089844 50.527344 -160.214844 C 50.527344 -155.339844 48.667969 -151.160156 44.941406 -147.683594 C 41.21875 -144.207031 36.753906 -142.464844 31.550781 -142.464844 Z M 31.550781 -142.464844 "/></g></g></g><g fill="#ffffff" fill-opacity="1"><g transform="translate(1228.380093, 332.487738)"><g><path d="M 13.96875 0 L 13.96875 -168.265625 L 48.96875 -168.265625 L 48.96875 -78.300781 L 50.855469 -78.300781 L 91.28125 -126.199219 L 131.457031 -126.199219 L 84.625 -71.5625 L 133.839844 0 L 92.839844 0 L 58.417969 -50.855469 L 48.96875 -40.09375 L 48.96875 0 Z M 13.96875 0 "/></g></g></g></svg>