<svg xmlns="http://www.w3.org/2000/svg" xmlns:xlink="http://www.w3.org/1999/xlink" width="1830" zoomAndPan="magnify" viewBox="0 0 1372.5 441.749989" height="589" preserveAspectRatio="xMidYMid meet" version="1.0"><defs><g/></defs><g fill="#000000" fill-opacity="1"><g transform="translate(0.171928, 332.559474)"><g><path d="M 14.6875 0 L 14.6875 -168.984375 L 81.355469 -168.984375 C 94.171875 -168.984375 105.09375 -166.550781 114.113281 -161.679688 C 123.132812 -156.8125 130.023438 -150.074219 134.78125 -141.464844 C 139.539062 -132.855469 141.917969 -122.941406 141.917969 -111.71875 C 141.917969 -100.5 139.5 -90.609375 134.660156 -82.058594 C 129.816406 -73.503906 122.816406 -66.820312 113.660156 -62.007812 C 104.5 -57.195312 93.429688 -54.789062 80.449219 -54.789062 L 50.414062 -54.789062 L 50.414062 0 Z M 50.414062 -83.417969 L 74.671875 -83.417969 C 84.902344 -83.417969 92.535156 -86.046875 97.570312 -91.296875 C 102.601562 -96.550781 105.121094 -103.359375 105.121094 -111.71875 C 105.121094 -120.136719 102.601562 -126.917969 97.570312 -132.058594 C 92.535156 -137.203125 84.847656 -139.773438 74.507812 -139.773438 L 50.414062 -139.773438 Z M 50.414062 -83.417969 "/></g></g></g><g fill="#000000" fill-opacity="1"><g transform="translate(150.664836, 332.559474)"><g><path d="M 49.175781 -73.269531 L 49.175781 0 L 14.027344 0 L 14.027344 -168.984375 L 48.1875 -168.984375 L 48.1875 -104.375 L 49.671875 -104.375 C 52.585938 -111.859375 57.222656 -117.730469 63.574219 -121.992188 C 69.929688 -126.257812 77.917969 -128.386719 87.542969 -128.386719 C 100.746094 -128.386719 111.363281 -124.152344 119.394531 -115.679688 C 127.425781 -107.210938 131.414062 -95.546875 131.359375 -80.695312 L 131.359375 0 L 96.207031 0 L 96.207031 -74.425781 C 96.261719 -82.234375 94.296875 -88.316406 90.308594 -92.660156 C 86.320312 -97.003906 80.75 -99.179688 73.601562 -99.179688 C 66.449219 -99.179688 60.605469 -96.910156 56.066406 -92.371094 C 51.527344 -87.832031 49.230469 -81.464844 49.175781 -73.269531 Z M 49.175781 -73.269531 "/></g></g></g><g fill="#000000" fill-opacity="1"><g transform="translate(295.712282, 332.559474)"><g><path d="M 71.289062 2.476562 C 58.472656 2.476562 47.402344 -0.261719 38.078125 -5.734375 C 28.753906 -11.207031 21.5625 -18.855469 16.503906 -28.671875 C 11.441406 -38.492188 8.910156 -49.890625 8.910156 -62.875 C 8.910156 -75.964844 11.441406 -87.421875 16.503906 -97.238281 C 21.5625 -107.058594 28.753906 -114.703125 38.078125 -120.175781 C 47.402344 -125.652344 58.472656 -128.386719 71.289062 -128.386719 C 84.105469 -128.386719 95.175781 -125.652344 104.5 -120.175781 C 113.824219 -114.703125 121.015625 -107.058594 126.078125 -97.238281 C 131.136719 -87.421875 133.667969 -75.964844 133.667969 -62.875 C 133.667969 -49.890625 131.136719 -38.492188 126.078125 -28.671875 C 121.015625 -18.855469 113.824219 -11.207031 104.5 -5.734375 C 95.175781 -0.261719 84.105469 2.476562 71.289062 2.476562 Z M 71.453125 -24.753906 C 80.144531 -24.753906 86.734375 -28.382812 91.214844 -35.644531 C 95.699219 -42.90625 97.941406 -52.066406 97.941406 -63.121094 C 97.941406 -74.175781 95.699219 -83.351562 91.214844 -90.636719 C 86.734375 -97.925781 80.144531 -101.570312 71.453125 -101.570312 C 62.597656 -101.570312 55.914062 -97.925781 51.40625 -90.636719 C 46.894531 -83.351562 44.636719 -74.175781 44.636719 -63.121094 C 44.636719 -52.066406 46.894531 -42.90625 51.40625 -35.644531 C 55.914062 -28.382812 62.597656 -24.753906 71.453125 -24.753906 Z M 71.453125 -24.753906 "/></g></g></g><g fill="#000000" fill-opacity="1"><g transform="translate(438.284509, 332.559474)"><g><path d="M 49.175781 -73.269531 L 49.175781 0 L 14.027344 0 L 14.027344 -126.738281 L 47.527344 -126.738281 L 47.527344 -104.375 L 49.011719 -104.375 C 51.871094 -111.746094 56.589844 -117.59375 63.164062 -121.910156 C 69.734375 -126.226562 77.726562 -128.386719 87.132812 -128.386719 C 100.332031 -128.386719 110.921875 -124.136719 118.898438 -115.640625 C 126.875 -107.140625 130.863281 -95.492188 130.863281 -80.695312 L 130.863281 0 L 95.714844 0 L 95.714844 -74.425781 C 95.769531 -82.179688 93.789062 -88.246094 89.773438 -92.617188 C 85.757812 -96.992188 80.226562 -99.179688 73.1875 -99.179688 C 66.089844 -99.179688 60.328125 -96.910156 55.902344 -92.371094 C 51.472656 -87.832031 49.230469 -81.464844 49.175781 -73.269531 Z M 49.175781 -73.269531 "/></g></g></g><g fill="#000000" fill-opacity="1"><g transform="translate(582.754428, 332.559474)"><g><path d="M 71.785156 2.476562 C 58.804688 2.476562 47.609375 -0.179688 38.203125 -5.488281 C 28.796875 -10.796875 21.5625 -18.332031 16.503906 -28.09375 C 11.441406 -37.859375 8.910156 -49.425781 8.910156 -62.792969 C 8.910156 -75.828125 11.441406 -87.269531 16.503906 -97.117188 C 21.5625 -106.960938 28.699219 -114.636719 37.914062 -120.136719 C 47.128906 -125.636719 57.949219 -128.386719 70.382812 -128.386719 C 81.546875 -128.386719 91.628906 -126.023438 100.621094 -121.292969 C 109.617188 -116.5625 116.753906 -109.421875 122.035156 -99.878906 C 127.316406 -90.335938 129.957031 -78.386719 129.957031 -64.027344 L 129.957031 -54.375 L 43.648438 -54.375 L 43.648438 -54.292969 C 43.648438 -44.832031 46.234375 -37.378906 51.40625 -31.933594 C 56.574219 -26.484375 63.5625 -23.761719 72.363281 -23.761719 C 78.25 -23.761719 83.335938 -25 87.628906 -27.476562 C 91.917969 -29.953125 94.941406 -33.609375 96.703125 -38.449219 L 129.210938 -36.304688 C 126.738281 -24.535156 120.464844 -15.128906 110.398438 -8.085938 C 100.332031 -1.046875 87.460938 2.476562 71.785156 2.476562 Z M 43.648438 -76.15625 L 96.867188 -76.15625 C 96.8125 -83.695312 94.394531 -89.910156 89.605469 -94.804688 C 84.820312 -99.699219 78.605469 -102.148438 70.960938 -102.148438 C 63.148438 -102.148438 56.742188 -99.617188 51.734375 -94.558594 C 46.730469 -89.496094 44.035156 -83.363281 43.648438 -76.15625 Z M 43.648438 -76.15625 "/></g></g></g><g fill="#000000" fill-opacity="1"><g transform="translate(721.613812, 332.559474)"><g><path d="M 81.4375 -126.738281 L 81.4375 -100.332031 L 57.59375 -100.332031 L 57.59375 -38.945312 C 57.59375 -34.105469 58.691406 -30.832031 60.894531 -29.125 C 63.09375 -27.421875 65.953125 -26.570312 69.472656 -26.570312 C 71.125 -26.570312 72.773438 -26.71875 74.425781 -27.023438 C 76.074219 -27.324219 77.339844 -27.558594 78.21875 -27.722656 L 83.75 -1.566406 C 81.988281 -1.019531 79.511719 -0.371094 76.324219 0.371094 C 73.132812 1.113281 69.253906 1.566406 64.6875 1.734375 C 51.925781 2.28125 41.683594 -0.480469 33.953125 -6.558594 C 26.226562 -12.636719 22.386719 -21.894531 22.441406 -34.324219 L 22.441406 -100.332031 L 5.117188 -100.332031 L 5.117188 -126.738281 L 22.441406 -126.738281 L 22.441406 -157.101562 L 57.59375 -157.101562 L 57.59375 -126.738281 Z M 81.4375 -126.738281 "/></g></g></g><g fill="#000000" fill-opacity="1"><g transform="translate(811.876535, 332.559474)"><g><path d="M 50.167969 2.394531 C 38.066406 2.394531 28.027344 -0.769531 20.050781 -7.097656 C 12.074219 -13.421875 8.085938 -22.855469 8.085938 -35.398438 C 8.085938 -44.859375 10.3125 -52.285156 14.769531 -57.675781 C 19.226562 -63.066406 25.070312 -67.011719 32.304688 -69.515625 C 39.535156 -72.019531 47.332031 -73.65625 55.695312 -74.425781 C 66.695312 -75.523438 74.5625 -76.679688 79.292969 -77.890625 C 84.023438 -79.101562 86.390625 -81.742188 86.390625 -85.8125 L 86.390625 -86.308594 C 86.390625 -91.53125 84.753906 -95.574219 81.480469 -98.4375 C 78.207031 -101.296875 73.574219 -102.726562 67.578125 -102.726562 C 61.25 -102.726562 56.21875 -101.351562 52.476562 -98.601562 C 48.738281 -95.851562 46.261719 -92.359375 45.050781 -88.121094 L 12.542969 -90.761719 C 14.960938 -102.3125 20.972656 -111.472656 30.570312 -118.238281 C 40.167969 -125.003906 52.558594 -128.386719 67.742188 -128.386719 C 77.148438 -128.386719 85.949219 -126.902344 94.144531 -123.933594 C 102.339844 -120.960938 108.957031 -116.328125 113.988281 -110.027344 C 119.023438 -103.730469 121.539062 -95.546875 121.539062 -85.480469 L 121.539062 0 L 88.203125 0 L 88.203125 -17.574219 L 87.214844 -17.574219 C 84.132812 -11.6875 79.527344 -6.890625 73.394531 -3.175781 C 67.261719 0.535156 59.519531 2.394531 50.167969 2.394531 Z M 60.234375 -21.867188 C 67.933594 -21.867188 74.261719 -24.105469 79.210938 -28.589844 C 84.160156 -33.074219 86.636719 -38.644531 86.636719 -45.296875 L 86.636719 -58.746094 C 85.261719 -57.8125 83.128906 -56.988281 80.242188 -56.273438 C 77.355469 -55.558594 74.273438 -54.9375 71 -54.417969 C 67.726562 -53.894531 64.800781 -53.441406 62.214844 -53.054688 C 56.050781 -52.175781 51.089844 -50.441406 47.320312 -47.855469 C 43.550781 -45.269531 41.667969 -41.503906 41.667969 -36.550781 C 41.667969 -31.710938 43.414062 -28.054688 46.90625 -25.578125 C 50.402344 -23.101562 54.84375 -21.867188 60.234375 -21.867188 Z M 60.234375 -21.867188 "/></g></g></g><g fill="#000000" fill-opacity="1"><g transform="translate(946.693123, 332.559474)"><g><path d="M 119.476562 -90.597656 L 87.296875 -88.617188 C 86.417969 -92.6875 84.1875 -96.179688 80.613281 -99.097656 C 77.039062 -102.011719 72.199219 -103.46875 66.089844 -103.46875 C 60.644531 -103.46875 56.039062 -102.328125 52.269531 -100.046875 C 48.503906 -97.761719 46.644531 -94.722656 46.703125 -90.925781 C 46.644531 -87.902344 47.84375 -85.34375 50.289062 -83.253906 C 52.738281 -81.164062 56.90625 -79.484375 62.792969 -78.21875 L 85.730469 -73.601562 C 110.097656 -68.59375 122.308594 -57.152344 122.363281 -39.273438 C 122.363281 -30.96875 119.929688 -23.679688 115.0625 -17.410156 C 110.195312 -11.140625 103.523438 -6.257812 95.054688 -2.765625 C 86.582031 0.730469 76.871094 2.476562 65.925781 2.476562 C 49.148438 2.476562 35.78125 -1.03125 25.824219 -8.042969 C 15.871094 -15.058594 10.066406 -24.617188 8.417969 -36.71875 L 42.988281 -38.53125 C 44.089844 -33.363281 46.632812 -29.457031 50.621094 -26.816406 C 54.609375 -24.175781 59.738281 -22.855469 66.007812 -22.855469 C 72.167969 -22.855469 77.132812 -24.066406 80.902344 -26.484375 C 84.671875 -28.90625 86.582031 -31.988281 86.636719 -35.726562 C 86.472656 -42 81.054688 -46.207031 70.382812 -48.351562 L 48.433594 -52.726562 C 23.902344 -57.621094 11.6875 -69.695312 11.800781 -88.945312 C 11.742188 -101.160156 16.625 -110.785156 26.445312 -117.824219 C 36.265625 -124.867188 49.285156 -128.386719 65.515625 -128.386719 C 81.519531 -128.386719 94.132812 -125.003906 103.34375 -118.238281 C 112.558594 -111.472656 117.9375 -102.257812 119.476562 -90.597656 Z M 119.476562 -90.597656 "/></g></g></g><g fill="#000000" fill-opacity="1"><g transform="translate(1077.219306, 332.559474)"><g><path d="M 81.4375 -126.738281 L 81.4375 -100.332031 L 57.59375 -100.332031 L 57.59375 -38.945312 C 57.59375 -34.105469 58.691406 -30.832031 60.894531 -29.125 C 63.09375 -27.421875 65.953125 -26.570312 69.472656 -26.570312 C 71.125 -26.570312 72.773438 -26.71875 74.425781 -27.023438 C 76.074219 -27.324219 77.339844 -27.558594 78.21875 -27.722656 L 83.75 -1.566406 C 81.988281 -1.019531 79.511719 -0.371094 76.324219 0.371094 C 73.132812 1.113281 69.253906 1.566406 64.6875 1.734375 C 51.925781 2.28125 41.683594 -0.480469 33.953125 -6.558594 C 26.226562 -12.636719 22.386719 -21.894531 22.441406 -34.324219 L 22.441406 -100.332031 L 5.117188 -100.332031 L 5.117188 -126.738281 L 22.441406 -126.738281 L 22.441406 -157.101562 L 57.59375 -157.101562 L 57.59375 -126.738281 Z M 81.4375 -126.738281 "/></g></g></g><g fill="#000000" fill-opacity="1"><g transform="translate(1167.482094, 332.559474)"><g><path d="M 14.027344 0 L 14.027344 -126.738281 L 49.175781 -126.738281 L 49.175781 0 Z M 31.683594 -143.074219 C 26.511719 -143.074219 22.058594 -144.820312 18.316406 -148.3125 C 14.578125 -151.808594 12.707031 -156 12.707031 -160.898438 C 12.707031 -165.792969 14.578125 -169.972656 18.316406 -173.4375 C 22.058594 -176.902344 26.511719 -178.636719 31.683594 -178.636719 C 36.910156 -178.636719 41.394531 -176.902344 45.132812 -173.4375 C 48.875 -169.972656 50.746094 -165.792969 50.746094 -160.898438 C 50.746094 -156 48.875 -151.808594 45.132812 -148.3125 C 41.394531 -144.820312 36.910156 -143.074219 31.683594 -143.074219 Z M 31.683594 -143.074219 "/></g></g></g><g fill="#000000" fill-opacity="1"><g transform="translate(1230.682454, 332.559474)"><g><path d="M 14.027344 0 L 14.027344 -168.984375 L 49.175781 -168.984375 L 49.175781 -78.632812 L 51.074219 -78.632812 L 91.671875 -126.738281 L 132.019531 -126.738281 L 84.988281 -71.867188 L 134.410156 0 L 93.238281 0 L 58.664062 -51.074219 L 49.175781 -40.265625 L 49.175781 0 Z M 14.027344 0 "/></g></g></g></svg>